<svg xmlns="http://www.w3.org/2000/svg" height="1024" preserveAspectRatio="none" style="display: block;" version="1.1" viewBox="0 0 2048 2048" width="1024">
<path d="M 0 0 L 2048 0 L 2048 2048 L 0 2048 L 0 0 z" fill="rgb(252,253,252)" transform="translate(0,0)"></path>
<path d="M 1881.9 96.4508 C 1895 103.015 1939.03 130.662 1938.62 146.109 C 1936.48 148.27 1891.6 160.402 1883.33 163.187 C 1868.84 168.207 1854.54 173.778 1840.47 179.887 C 1762.73 213.447 1696.09 255.375 1626.82 303.667 C 1589.85 329.62 1553.72 356.739 1518.48 384.982 C 1493.53 404.894 1351.54 522.853 1348.88 546.345 C 1348.68 548.087 1349.3 548.217 1350.32 549.45 C 1369.91 552.251 1478.4 495.509 1503.26 483.4 C 1707.67 383.825 1923.97 543.927 1883.82 768.043 C 1882.71 774.23 1881.25 788.651 1873.15 788.967 C 1871.64 787.402 1871.07 786.364 1871 784.159 C 1869.22 732.118 1841.21 682.331 1803.66 646.64 C 1773.96 618.398 1724.85 584.223 1681.5 582.993 C 1669.6 582.923 1658.54 589.604 1662.29 602.827 C 1668.87 626.062 1690.07 642.119 1707.21 657.866 C 1725.44 674.617 1743.63 690.479 1761.44 707.857 C 1833.37 778.02 1890.96 871.281 1898.42 973.373 C 1900.3 1036.8 1873.5 1099.07 1837.93 1150.39 C 1821.3 1174.39 1801.34 1195.68 1782.66 1217.98 C 1776.55 1225.49 1771.07 1233.49 1765.46 1241.34 C 1761.38 1247.05 1757.75 1261.24 1750.83 1261.23 C 1745.28 1254.76 1762.45 1233.3 1762.65 1227.46 C 1764.28 1180.92 1758.83 1133.53 1756.15 1086.99 C 1751.71 1010.04 1743.94 928.899 1717.69 855.973 C 1698.23 801.913 1655.97 745.53 1607.04 715.448 C 1578.69 697.433 1511.95 671.995 1478.47 682.395 C 1381.37 712.558 1495.89 823.169 1525.33 857.031 C 1570.33 908.798 1607.74 949.107 1645.9 1003.19 C 1675.83 1045.6 1694.06 1096.27 1708.41 1145.19 C 1728.57 1224.72 1729.14 1313.27 1684.41 1384.99 C 1647.88 1444.07 1592.33 1492 1542.88 1539.97 C 1538.15 1544.56 1529.77 1556.84 1527.32 1557.45 L 1526.7 1555.46 C 1528.13 1544.86 1536.31 1534.42 1543.25 1526.74 C 1550.36 1492.02 1553.74 1454.5 1557.55 1418.34 C 1567.55 1328.62 1575.06 1231.17 1559.56 1142.08 C 1545.23 1059.68 1448.93 860.345 1351.06 871.134 C 1338.16 872.647 1326.38 879.211 1318.3 889.388 C 1282.84 934.134 1332.48 1015.4 1354.34 1057.91 C 1376.14 1100.33 1397.2 1144.69 1419.03 1186.9 C 1484.76 1313.99 1534.37 1475.71 1431.89 1599.55 C 1391.41 1648.44 1333.41 1681.12 1274.64 1703.89 C 1265.65 1707.38 1249.03 1716.5 1240 1717.37 L 1238.83 1716.04 C 1240.07 1712.87 1251.76 1702.03 1255.48 1697.66 C 1259.8 1692.54 1263.73 1687.09 1267.23 1681.37 C 1294.16 1637.66 1305.54 1579.25 1309.83 1528.79 C 1317.41 1439.56 1303.72 1345.25 1289.99 1256.99 C 1280.52 1196.03 1269.32 1129.38 1250.29 1071.01 C 1237.92 1035.35 1223.89 1002.77 1200.16 973.142 C 1172.25 938.279 1124.19 921.613 1086.91 952.732 C 1067.73 968.74 1059.81 997.588 1063.74 1022.24 C 1070.69 1065.89 1094.27 1105.13 1111.39 1145.34 C 1164.15 1261.81 1215.9 1396.06 1208.26 1525.93 C 1203.56 1605.88 1166.79 1690.23 1105.06 1741.76 C 1074.56 1767.22 1038.7 1782.78 1002.35 1798.41 C 989.078 1804.12 974.697 1809.3 961.37 1815.17 C 950.793 1819.82 926.831 1837.77 915.852 1836.94 C 916.429 1831.87 933.465 1823.04 936.956 1818.14 C 981.783 1755.25 1007.73 1664.28 1023.64 1590.72 C 1047.54 1484.67 1048.93 1374.79 1027.74 1268.17 C 1019.31 1225.95 1009.21 1188.81 985.848 1151.5 C 966.023 1118.59 929.123 1099.26 894.251 1124.88 C 853.888 1155.45 842.511 1213.56 838.552 1260.96 C 825.734 1414.44 925.513 1556.32 902.947 1710 C 891.726 1786.42 847.027 1866.05 763.383 1874.21 C 733.865 1877.09 676.03 1867.12 653.18 1883.41 L 651.9 1884.34 L 651.017 1884.01 C 648.25 1870.91 688.653 1817.99 697.912 1804.63 C 706.158 1792.66 714.172 1780.53 721.952 1768.25 C 761.735 1705.1 771.44 1635.12 771.117 1561.91 C 770.969 1528.49 768.651 1494.15 761.074 1461.51 C 756.291 1440.92 747.427 1410.11 727.855 1398.5 C 719.719 1393.67 710.379 1393.08 701.399 1395.72 C 638.161 1414.32 636.761 1586.47 639.129 1639.18 C 641.204 1685.4 651.066 1731.8 650.075 1778 C 649.534 1803.22 646.409 1829.36 634.16 1851.84 C 628.681 1861.9 620.356 1871.65 609.409 1875.86 C 586.866 1884.53 549.417 1880.5 525.013 1881.25 C 491.318 1882.28 455.723 1885.08 423.346 1894.79 C 401.546 1901.32 375.52 1911.14 361.185 1929.91 C 357.764 1934.39 356.439 1939.59 353.408 1944.08 C 351.897 1946.31 350.583 1946.79 348.047 1947.27 C 346.199 1945.39 345.985 1944.37 345.304 1941.78 C 343.252 1933.99 343.335 1925.53 341.78 1917.59 C 339.041 1903.61 334.271 1889.31 329.445 1875.91 C 313.802 1832.47 290.834 1793.82 267.954 1754 C 256.264 1733.65 244.722 1713.1 235.477 1691.5 C 222.237 1660.56 191.497 1560.55 200.713 1530.16 C 204.556 1517.49 220.048 1505.76 229.568 1496.75 C 254.916 1472.75 284.034 1453.23 313.463 1434.63 C 354.345 1408.79 389.619 1388.74 434.116 1369.32 C 465.099 1355.8 497.602 1345.14 527.317 1328.86 C 548.604 1317.2 574.896 1299.73 581.647 1274.75 C 584.17 1265.42 583.534 1255.57 578.47 1247.2 C 571.313 1235.36 557.705 1228.83 544.705 1225.61 C 482.03 1210.06 408.691 1248.16 356.122 1279.6 C 282.179 1323.83 217.31 1399.44 196.11 1484.09 C 197.465 1491.32 200.273 1503.19 200.562 1510.03 L 199.575 1511.27 C 193.427 1508.26 193.961 1503.86 190.374 1498.97 C 188.822 1505 187.752 1515.99 181.373 1517.48 L 179.157 1516.04 C 178.864 1508.46 184.443 1490.66 183.594 1486.3 C 179.271 1464.08 174.943 1444.95 173.38 1422.12 C 169.939 1363.45 185.258 1305.2 217.122 1255.8 C 276.768 1163.2 381.137 1113.84 486.835 1098.59 C 549.269 1088.88 609.623 1083.83 667.641 1056.55 C 696.651 1044.61 739.203 1014.92 735.437 978.273 C 730.204 927.341 643.814 918.162 607.1 922.877 C 502.464 936.315 389.829 997.087 306.982 1058.83 C 269.811 1086.82 235.111 1117.95 203.263 1151.87 C 177.549 1179.64 158.386 1205.14 139.321 1237.51 C 137.991 1239.77 136.81 1239.38 134.604 1239.5 C 127.337 1235.37 125.915 1219.44 124.738 1211.33 C 102.903 1060.98 159.413 870.119 306.447 801.685 C 371.327 771.488 477.375 771.281 548.414 766.178 C 586.438 763.251 624.309 758.595 661.91 752.223 C 693.774 746.764 737.874 737.465 765.754 721.276 C 782.031 711.65 797.111 695.283 800.755 676.33 C 807.814 639.622 765.395 621.636 737.473 612.718 C 723.835 608.361 707.662 604.237 693.508 602.267 C 572.227 585.386 446.844 625.481 341.73 683.906 C 315.849 698.291 289.871 712.473 267.669 732.272 C 261.681 737.579 255.845 743.593 249.468 748.271 C 246.544 747.171 247.27 747.192 245.022 744.262 C 245.945 738.231 258.961 729.472 262.792 723.897 C 289.287 685.129 298.49 637.033 317.592 594.504 C 362.171 495.254 427.394 429.76 538.487 412.918 C 650.14 395.992 726.964 441.033 831.026 472.359 C 891.882 490.678 992.652 509.482 1054.17 485.29 C 1064.57 479.75 1072.74 470.194 1075.74 458.691 C 1086.75 416.404 1036.91 381.099 1006.89 360.784 C 920.878 302.57 818.883 271.582 715.085 289.162 C 696.272 292.324 677.829 297.385 660.037 304.266 C 651.81 307.421 607.524 329.84 603.641 328.887 L 603.024 327.184 C 604.931 320.48 623.601 313.215 627.146 307.488 C 642.806 279.224 662.412 256.434 681.558 231.647 C 779.718 104.567 939.153 133.535 1057.3 211.815 C 1074.78 223.396 1160.16 297.302 1176.93 265.586 C 1211.09 200.995 1073.55 138.355 1026.44 127.899 C 1009.91 124.273 978.349 121.129 975.076 119.34 L 975.223 117.769 C 984.703 108.953 1026.85 102.152 1039.72 100.693 C 1113.81 92.2912 1191.58 114.999 1249.8 160.987 C 1317.29 214.293 1336.48 289.148 1320.47 371.35 C 1309.45 427.992 1297.36 449.595 1303.4 508.921 C 1320.23 489.666 1359.27 453.198 1378.71 434.914 C 1509.77 311.637 1661.99 192.51 1826.78 118.22 C 1840.76 111.918 1867.42 100.314 1881.9 96.4508 z" fill="rgb(0,60,57)" transform="translate(0,0)"></path>
<path d="M 196.11 1484.09 C 197.465 1491.32 200.273 1503.19 200.562 1510.03 L 199.575 1511.27 C 193.427 1508.26 193.961 1503.86 190.374 1498.97 C 189.351 1493.52 193.096 1488.31 196.11 1484.09 z" fill="rgb(19,71,70)" transform="translate(0,0)"></path>
<path d="M 1033.69 110.351 C 1037.93 109.506 1046.61 109.7 1050.96 110.069 C 1106.18 114.743 1151.54 148.612 1184.71 191.162 C 1221.22 237.974 1242.8 294.685 1246.65 353.924 C 1251.28 416.49 1244.75 434.011 1267.78 496.869 C 1241.29 472.981 1217.11 446.649 1195.57 418.223 C 1173.98 389.983 1158.05 364.647 1133.83 337.553 C 1060.9 255.943 954.637 192.142 843.494 186.086 C 808.742 184.193 740.96 187.948 713.622 212.391 C 711.309 214.459 711.198 215.489 711.238 217.958 C 713.475 218.616 741.932 211.19 748.005 210.158 C 823.677 197.294 908.088 215.015 974.553 252.673 C 999.354 266.724 1018 281.212 1039.79 299.297 C 1063.28 318.799 1083.58 337.275 1102.73 361.287 C 1161.93 435.51 1182.03 492.597 1262.24 549.185 C 1238.75 572.259 1217.88 595.98 1195.21 619.281 C 1183.28 615.153 1163.47 612.334 1150.39 609.047 C 1116.84 600.614 1082.68 592.92 1049.39 583.566 C 906.29 543.36 776.152 484.767 625.449 480.027 C 507.061 478.657 434.044 508.704 338.14 573.332 C 338.624 572.237 339.124 571.15 339.64 570.07 C 365.675 515.966 406.379 471.446 460.659 444.772 C 521.184 415.029 604.053 411.13 668.791 427.48 C 718.199 441.831 767.675 459.183 816.119 476.168 C 869.039 494.722 1051.21 535.157 1080.2 469.842 C 1086.72 455.52 1087.14 439.168 1081.38 424.525 C 1063.75 379.444 980.787 330.696 936.488 311.474 C 834.81 267.356 743.105 262.378 639.812 303.773 C 660.469 263.619 721.008 194.7 760.53 174.581 C 855.46 128.025 965.491 163.674 1049.99 216.468 C 1074.06 231.507 1173.22 323.99 1190.15 257.51 C 1198.86 223.298 1167.36 192.92 1142.09 174.263 C 1099.01 142.463 1058.62 125.85 1005.85 114.857 L 1033.69 110.351 z" fill="rgb(58,127,115)" transform="translate(0,0)"></path>
<path d="M 1043.42 524.337 C 1058.58 523.556 1078.92 529.171 1092.59 535.392 C 1121.29 548.451 1123.56 568.108 1090.89 577.819 C 1033.03 586.505 985.576 530.624 1043.42 524.337 z" fill="rgb(0,60,57)" transform="translate(0,0)"></path>
<path d="M 1040.51 532.26 C 1055.11 531.664 1104.36 540.522 1104.84 558.472 C 1102.58 564.708 1098.82 565.62 1092.88 568.498 C 1051.58 577.698 1001.22 540.601 1040.51 532.26 z" fill="rgb(252,253,252)" transform="translate(0,0)"></path>
<path d="M 1117.62 466.177 C 1148.18 465.279 1212.82 518.43 1160.94 530.003 C 1114.67 530.994 1068.75 478.453 1117.62 466.177 z" fill="rgb(0,60,57)" transform="translate(0,0)"></path>
<path d="M 1114.75 475.146 C 1131.15 472.506 1151.16 487.01 1163.02 497.138 C 1172.67 505.377 1177.03 514.773 1163.4 521.475 C 1142.34 523.585 1120.69 512.664 1108.1 495.985 C 1101.61 487.384 1106.74 479.78 1114.75 475.146 z" fill="rgb(252,253,252)" transform="translate(0,0)"></path>
<path d="M 1153.86 553.346 C 1166.69 553 1224.5 556.333 1215.02 586.75 C 1213.03 593.15 1197.47 598.498 1190.14 599.988 C 1171.57 600.6 1152.46 597.975 1136.5 587.68 C 1129.33 583.057 1122.16 571.742 1129.41 563.846 C 1135.91 556.771 1144.58 554.36 1153.86 553.346 z" fill="rgb(0,60,57)" transform="translate(0,0)"></path>
<path d="M 1149.78 562.184 C 1162.48 561.488 1175.21 562.681 1187.56 565.724 C 1207.83 570.757 1217.74 582.528 1193.26 592.053 C 1165.03 598.351 1107.47 572.487 1149.78 562.184 z" fill="rgb(252,253,252)" transform="translate(0,0)"></path>
<path d="M 824.618 808.447 C 863.639 807.122 902.535 808.732 941.481 811.066 C 965.547 812.508 990.368 813.729 1014.19 817.519 C 981.442 854.398 951.899 894.041 921.046 932.479 C 877.038 987.306 832.12 1041.68 790.047 1097.99 C 754.335 1097.42 718.008 1100.92 682.504 1104.59 C 614.918 1111.57 554.516 1120.38 489.997 1142.74 C 467.106 1150.67 444.269 1159.68 422.999 1171.34 C 330.469 1222.04 253.639 1301.26 213.33 1399.36 C 203.488 1423.31 197.42 1447.76 190.154 1472.53 C 188.021 1462.56 186.174 1452.52 184.614 1442.44 C 173.835 1370.04 194.876 1297.66 238.309 1239.43 C 257.168 1214.14 280.339 1193.6 306.077 1175.57 C 381.637 1122.64 454.521 1111.16 543.78 1098.11 C 567.995 1094.26 592.361 1090.68 616.009 1084.05 C 658.153 1072.25 712.542 1052.48 734.732 1012.23 C 742.286 998.534 745.702 982.602 741.076 967.3 C 735.96 950.373 723.67 939.516 708.537 931.527 C 656.842 904.235 590 912.41 536.082 929.439 C 492.278 943.555 449.899 961.758 409.504 983.809 C 314.371 1035.49 187.175 1131.47 136.676 1228.38 C 133.501 1210.57 130.853 1192.14 130.028 1174.06 C 129.76 1168.18 129.554 1161.66 131.411 1156.01 C 138.99 1132.94 174.576 1089.07 191.826 1070.38 C 215.088 1045.17 240.839 1023.13 267.756 1001.94 C 291.692 983.09 316.694 964.851 342.663 948.892 C 438.22 890.172 552.319 849.657 662.137 828.285 C 681.635 824.49 701.459 821.953 721.117 819.117 C 755.695 814.128 789.673 809.857 824.618 808.447 z" fill="rgb(58,127,115)" transform="translate(0,0)"></path>
<path d="M 823.538 827.421 L 824.497 827.347 C 852.291 825.452 886.144 829.147 907.858 848.372 C 917.643 857.036 923.813 868.49 924.234 881.696 C 924.713 896.753 917.567 911.017 907.147 921.543 C 887.398 941.493 856.576 946.562 829.696 946.713 C 801.688 945.048 769.655 939.548 746.967 921.768 C 736.375 913.467 727.094 901.266 725.763 887.529 C 724.683 876.374 728.926 865.679 736.175 857.308 C 756.324 834.038 794.745 829.449 823.538 827.421 z" fill="rgb(0,60,57)" transform="translate(0,0)"></path>
<path d="M 829.683 835.427 L 831.665 835.39 C 856.407 834.981 885.926 837.241 904.451 855.807 C 912.056 863.429 917.086 873.323 916.936 884.247 C 916.765 896.659 910.152 907.902 901.349 916.29 C 880.375 936.277 849.217 938.829 821.749 938.001 C 798.151 935.939 771.1 930.394 751.925 915.583 C 743.193 908.838 734.964 899.202 733.738 887.864 C 732.747 878.709 736.493 869.745 742.394 862.881 C 761.698 840.425 802.127 836.921 829.683 835.427 z" fill="rgb(252,253,252)" transform="translate(0,0)"></path>
<path d="M 589.243 545.413 C 598.901 544.24 620.767 544.495 630.697 544.695 C 698.6 546.064 760.255 560.877 825.546 577.081 C 884.794 591.785 943.184 608.13 1002.36 622.786 C 1032.93 630.457 1063.65 637.529 1094.5 643.997 C 1115.89 648.441 1136.66 651.609 1157.96 656.786 C 1150.94 664.709 1143.46 671.962 1136.48 679.977 C 1107.53 713.199 1078.94 745.973 1048.58 777.956 C 1027.69 774.604 1000.91 773.708 979.721 771.517 C 902.779 763.561 822.994 760.416 745.961 769.808 C 551.647 793.5 348.135 864.778 202.007 998.753 C 177.01 1021.67 156.682 1041.64 135.668 1068.28 C 138.904 1051.03 142.516 1035.86 146.617 1018.82 C 163.863 960.419 184.854 914.88 227.627 869.911 C 244.392 852.285 266.553 832.38 287.594 820.448 C 359.415 779.717 452.23 780.996 532.336 775.873 C 572.795 772.534 613.323 768.649 653.427 762.097 C 690.757 755.999 733.624 747.752 767.208 729.88 C 795.511 714.818 823.196 675.322 802.53 643.918 C 784.181 616.033 743.203 605.378 712.722 597.205 C 565.081 567.898 407.368 628.914 285.29 708.094 C 289.593 699.321 299.818 686.594 306.574 678.928 C 381.568 593.836 478.301 554.126 589.243 545.413 z" fill="rgb(58,127,115)" transform="translate(0,0)"></path>
<path d="M 931.949 623.442 C 965.041 624.423 986.618 629.524 1019.24 641.188 C 1056.92 654.66 1103.73 692.94 1069.59 736.1 C 1053.57 756.342 1020.06 760.309 994.901 761.423 C 954.863 763.118 900.17 754.889 868.926 729.716 C 844.02 709.649 838.298 671.77 861.211 647.635 C 880.918 626.877 905.259 624.507 931.949 623.442 z" fill="rgb(0,60,57)" transform="translate(0,0)"></path>
<path d="M 925.047 631.421 C 965.147 630.146 1014.89 642.933 1048.3 665.966 C 1067.73 679.365 1083.67 707.577 1065.34 728.962 C 1050.52 746.242 1028.03 750.624 1006.21 752.876 C 964.591 754.229 908.371 751.48 874.585 724.658 C 863.655 716.015 856.708 703.299 855.339 689.432 C 854.101 676.535 858.081 663.679 866.39 653.738 C 880.561 636.918 904.417 632.875 925.047 631.421 z" fill="rgb(252,253,252)" transform="translate(0,0)"></path>
<path d="M 1111.8 808.618 C 1111.89 808.65 1111.99 808.672 1112.07 808.713 C 1121.56 813.145 1143.77 846.45 1150.86 856.586 C 1194.67 918.309 1234.45 982.803 1269.93 1049.66 C 1292.69 1093.59 1312.64 1139.38 1331.33 1185.17 C 1383.7 1313.49 1426.79 1448.2 1369.79 1583.28 C 1358.18 1610.8 1329.75 1662.98 1305.32 1679.32 C 1295.18 1686.1 1282.27 1690.12 1271 1694.69 C 1276.19 1685.08 1281.04 1675.29 1285.56 1665.35 C 1306.91 1617.47 1316.41 1566.58 1319.54 1514.44 C 1324.25 1435.88 1313.35 1357.06 1301.85 1279.51 C 1289.91 1199.05 1277.34 1118.57 1248.1 1042.26 C 1232.98 1002.79 1206.88 953.637 1166.34 935.924 C 1146.68 927.333 1121.5 925.694 1101.4 933.768 C 1080.2 942.285 1068.41 959.374 1059.82 979.733 C 1043.03 1024.8 1075.59 1086.06 1094.28 1126.85 C 1104.59 1149.22 1114.65 1171.7 1124.46 1194.29 C 1141.18 1233.28 1156.04 1273.03 1169.01 1313.42 C 1177 1338.3 1182.96 1363.29 1188.2 1388.87 C 1206.77 1479.59 1207.04 1571.56 1163.7 1655.73 C 1140.62 1700.53 1105.65 1735.48 1062.31 1760.72 C 1051.71 1766.9 1040.96 1773.03 1029.23 1776.8 C 1044.74 1758.91 1058.88 1739.88 1071.54 1719.88 C 1097.91 1677.41 1115.28 1634.41 1127.14 1585.94 C 1148.14 1500.14 1144.08 1413.03 1124.11 1327.39 C 1119.23 1306.44 1112.99 1285.7 1107.17 1264.99 C 1089.61 1202.54 1069.06 1141.34 1049.4 1079.57 C 1033.98 1029.62 1020.34 979.149 1008.49 928.238 C 1030.54 900.86 1053.23 874.001 1076.54 847.684 C 1088.12 834.547 1099.41 821.005 1111.8 808.618 z" fill="rgb(58,127,115)" transform="translate(0,0)"></path>
<path d="M 1092.47 855.096 C 1096.05 854.995 1099.84 855.559 1103.14 856.977 C 1109.8 859.842 1114.47 865.057 1116.95 871.827 C 1121.29 883.713 1119.89 897.441 1114.62 908.783 C 1108.67 921.582 1100.14 928.796 1087.12 933.475 C 1082.33 933.786 1078.27 933.471 1073.87 931.363 C 1067.26 928.19 1063.15 922.847 1060.92 915.935 C 1057.1 904.061 1059.36 891.349 1064.99 880.46 C 1070.93 868.978 1079.86 859.004 1092.47 855.096 z" fill="rgb(0,60,57)" transform="translate(0,0)"></path>
<path d="M 1093.41 862.82 C 1095.63 862.862 1097.9 863.158 1099.91 864.149 C 1104.46 866.385 1108.29 871.116 1109.84 875.897 C 1113.28 886.534 1111.35 898.166 1106.11 907.862 C 1101.45 916.511 1095.14 923.157 1085.65 926.103 C 1083.57 926.065 1081.36 926.067 1079.38 925.388 C 1075.27 923.98 1070.83 920.48 1068.87 916.572 C 1065.33 909.507 1066.24 899.524 1068.57 892.236 C 1072.53 879.474 1081.49 868.861 1093.41 862.82 z" fill="rgb(252,253,252)" transform="translate(0,0)"></path>
<path d="M 1880.94 106.067 C 1888.24 110.476 1892.92 113.512 1899.72 118.609 C 1808.73 143.003 1693.61 212.956 1618.57 267.837 C 1578.83 296.901 1536.42 332.9 1496.44 363.54 L 1497.95 365.1 C 1544.31 330.979 1586.83 294.143 1634.57 261.527 C 1720.1 203.098 1805.18 150.873 1905.62 122.541 C 1913.87 129.298 1919.43 133.271 1926.61 141.205 C 1802.46 172.717 1665.23 259.517 1563.74 337.887 C 1508.73 380.091 1455.53 424.615 1404.3 471.337 C 1385.48 488.444 1366.05 505.521 1350.04 525.405 C 1340.33 537.477 1337.71 547.465 1335.78 562.469 C 1282.25 610.612 1224.69 672.428 1176.12 725.553 C 1133.92 771.11 1092.31 817.209 1051.31 863.839 C 1042.42 874.063 1033.7 884.54 1025.08 894.989 C 957.342 977.107 885.529 1056.61 819.578 1140.2 C 692.471 1302.26 577.351 1473.36 475.133 1652.16 C 448.066 1699.25 413.521 1769.41 393.149 1819.29 C 385.807 1837.26 378.698 1855.32 371.824 1873.46 C 369.084 1880.91 360.726 1905.95 357.559 1911.34 C 357.325 1906.5 363.992 1882.77 365.499 1876.83 C 388.087 1787.96 429.585 1677.02 474.059 1596.63 C 509.202 1532.89 546.283 1470.23 585.25 1408.75 C 609.831 1370.61 638.896 1329.54 664.561 1291.72 C 854.505 1010.54 1072.09 749.055 1314.06 511.165 C 1332.51 493.145 1350.34 474.644 1368.97 456.784 C 1472.82 357.218 1588.36 262.002 1712.03 188.112 C 1752.58 163.362 1794.8 141.472 1838.39 122.601 C 1850.11 117.563 1868.95 109.503 1880.94 106.067 z" fill="rgb(252,253,252)" transform="translate(0,0)"></path>
<path d="M 1496.44 363.54 L 1497.95 365.1 C 1492.81 369.192 1485.86 374.807 1480.21 377.762 C 1484.88 372.68 1491.03 367.953 1496.44 363.54 z" fill="rgb(19,71,70)" transform="translate(0,0)"></path>
<path d="M 1215.78 694.568 C 1223.26 697.716 1238.74 707.664 1245.71 712.08 C 1269.88 727.378 1293.42 743.664 1316.26 760.896 C 1337.28 776.974 1360.6 798.418 1380.28 816.703 C 1500.26 928.152 1591 1060.21 1613.18 1225.52 C 1624.92 1313.03 1614.59 1398.7 1575.37 1478.56 C 1570.18 1489.13 1560.49 1506.95 1553.59 1515.96 C 1567.55 1398.76 1589.19 1267.53 1568.8 1149.71 C 1560.55 1102.03 1541.7 1051.99 1518.69 1009.62 C 1492.61 961.606 1460.74 913.724 1414.94 882.311 C 1397.57 871.415 1365.38 857.606 1344.45 863.73 C 1295.83 877.952 1293.6 925.082 1303.01 964.229 C 1312.85 998.449 1332.65 1031.41 1348.33 1063.48 C 1379.08 1126.35 1413.39 1188.59 1441.46 1252.72 C 1472.9 1324.54 1492.74 1410.08 1477.12 1488.1 C 1465.1 1548.13 1423.79 1609.15 1371.87 1642.41 C 1406.91 1577.02 1432.66 1525.46 1434.75 1448.97 C 1437.3 1355.65 1410.09 1275.26 1374.13 1190.23 C 1319.11 1060.15 1251.1 931.989 1166.59 818.577 C 1157.58 806.49 1146.58 791.713 1136.35 780.762 C 1155.1 761.095 1172.92 740.65 1191.97 721.232 C 1200.21 712.836 1207.46 703.216 1215.78 694.568 z" fill="rgb(58,127,115)" transform="translate(0,0)"></path>
<path d="M 1221.56 714.246 C 1256.73 712.461 1292.48 763.361 1305.25 791.402 C 1316.24 815.519 1316.06 851.904 1280.45 849.73 C 1245.03 845.516 1208.76 806.321 1193.02 776.698 C 1177.71 747.877 1187.87 719.607 1221.56 714.246 z" fill="rgb(0,60,57)" transform="translate(0,0)"></path>
<path d="M 1218.91 722.044 C 1269.81 718.525 1341.33 844.645 1280.31 842.166 C 1250.77 834.569 1234.88 819.16 1215.47 796.431 C 1196.31 773.987 1176.94 734.152 1218.91 722.044 z" fill="rgb(252,253,252)" transform="translate(0,0)"></path>
<path d="M 1318.59 592.176 C 1345.72 596.32 1374.19 596.067 1401.6 601.505 C 1510.15 623.045 1597.82 671.021 1672.95 752.459 C 1777.24 865.506 1815.32 1013.44 1796.36 1164.39 C 1792.29 1196.8 1790.83 1194 1771.4 1218.82 C 1769.98 1163.3 1766.72 1107.84 1761.63 1052.54 C 1760.58 1040.77 1759.51 1028.14 1758.82 1016.51 C 1749.72 863.867 1685.12 702.234 1515.9 673.931 C 1483.07 667.016 1435.83 680.039 1432.95 719.878 C 1429.13 772.658 1488.89 826.294 1519.97 863.363 C 1569.14 918.284 1623.81 976.628 1659.55 1041.59 C 1667.7 1056.43 1679.75 1086.23 1685.74 1102.51 C 1700.72 1142.6 1709.49 1184.75 1711.76 1227.49 C 1717.61 1335.67 1681.42 1385.19 1613.52 1460.95 C 1663.84 1335.57 1683.43 1220.28 1637.38 1089.96 C 1604.45 996.758 1543.16 916.603 1475.37 845.843 C 1453.38 823.608 1430.59 798.071 1406.12 778.597 C 1356.99 739.496 1299.88 692.453 1243.46 665.033 C 1268.84 639.575 1291.95 616.3 1318.59 592.176 z" fill="rgb(58,127,115)" transform="translate(0,0)"></path>
<path d="M 1327.52 636.313 C 1354.89 633.852 1403.37 653.572 1409.54 684.026 C 1412.82 700.223 1400.11 708.969 1385.43 711.571 C 1358.65 712.539 1284.61 688.997 1307.18 649.138 C 1311.16 642.099 1319.9 638.057 1327.52 636.313 z" fill="rgb(0,60,57)" transform="translate(0,0)"></path>
<path d="M 1332 644.171 C 1372.97 642.725 1434.52 694.826 1382.26 703.18 C 1364.12 702.595 1345.72 695.576 1329.86 687.135 C 1307.22 675.09 1301.46 650.03 1332 644.171 z" fill="rgb(252,253,252)" transform="translate(0,0)"></path>
<path d="M 974.69 969.695 C 975.459 970.407 975.745 970.59 976.336 971.621 C 981.323 980.334 987.085 1006.89 990.416 1017.96 C 997.317 1040.46 1004.6 1062.86 1012.25 1085.12 L 1044.18 1182.1 C 1081.08 1292.83 1112.9 1395.4 1103.28 1513.77 C 1100.99 1542.06 1097.02 1569.71 1089.32 1597.07 C 1083.4 1617.61 1075.95 1637.68 1067.05 1657.12 C 1045.95 1702.71 996.885 1786.25 953.174 1810.71 C 961.642 1795.94 970.041 1781.24 977.238 1765.8 C 1011.26 1692.84 1032.47 1605.55 1043.24 1525.77 C 1057.51 1420.12 1054.26 1287.19 1013.02 1187.83 C 1006.03 1170.99 998.038 1153.36 986.853 1138.89 C 974.662 1123.13 956.476 1107.61 935.923 1105.36 C 919.066 1103.52 900.494 1109.51 887.435 1120.16 C 860.302 1141.09 846.225 1173.96 838.837 1206.48 C 830.699 1242.29 827.505 1280.95 830.285 1317.57 C 833.71 1362.69 844.404 1408.7 856.206 1452.3 C 864.562 1483.17 874.527 1513.58 882.195 1544.65 C 897.105 1605.06 905.096 1673.01 890.043 1734 C 877.778 1783.69 853.886 1825.8 809.33 1852.53 C 832.914 1817.52 848.062 1780.88 858.03 1740.03 C 865.335 1710.1 869.983 1678.71 870.938 1647.89 C 871.706 1623.14 869.66 1598.78 867.229 1574.17 C 858.84 1489.24 837.637 1406.76 823.891 1322.73 C 815.425 1270.96 813.224 1218.57 811.977 1166.21 C 866.172 1099.91 914.858 1031.68 974.69 969.695 z" fill="rgb(58,127,115)" transform="translate(0,0)"></path>
<path d="M 609.958 1349.13 L 611.446 1348.91 L 612.313 1349.92 C 609.302 1357.32 603.286 1364.66 598.807 1371.32 C 589.709 1384.74 580.705 1398.23 571.794 1411.77 C 553.476 1440.08 536.808 1469.57 519.428 1498.47 C 457.812 1600.91 404.376 1712.34 369.672 1826.95 C 361.635 1853.5 355.906 1880.67 349.143 1907.55 C 335.801 1868.36 320.763 1831.45 301.419 1794.88 C 292.492 1778.01 274.132 1751.49 268.521 1735.1 C 265.943 1727.57 266.263 1718.75 267.778 1711.05 C 277.485 1661.66 343.015 1644.5 380.876 1619.84 C 404.744 1604.23 428.72 1583.06 442.355 1557.62 C 449.613 1544.09 455.988 1526.36 450.939 1511.11 C 448.819 1504.71 444.235 1499.03 438.146 1496.03 C 428.448 1491.24 415.779 1493.2 405.849 1496.47 C 367.394 1509.16 336.388 1546.18 310.079 1575.56 C 296.573 1590.64 283.018 1605.69 271.307 1622.24 C 258.884 1639.79 248.352 1658.1 238.654 1677.28 C 236.301 1671.2 234.536 1664.85 232.623 1658.62 C 236.095 1648.37 238.549 1637.78 242.094 1627.54 C 246.601 1614.51 253.083 1601.28 259.682 1589.17 C 269.479 1571.2 282.793 1555.1 295.993 1539.54 C 374.984 1446.43 494.274 1383.55 609.958 1349.13 z" fill="rgb(58,127,115)" transform="translate(0,0)"></path>
<path d="M 768.455 1223.67 L 769.404 1224.61 C 779.001 1285.88 789.693 1346.97 801.474 1407.86 C 811.087 1459.63 822.032 1511.82 827.611 1564.2 C 837.273 1654.93 831.54 1758.6 778.534 1836.32 C 772.064 1845.8 763.923 1856.65 753.408 1861.87 C 737.255 1869.9 711.401 1864.86 693.751 1865.07 C 684.04 1865.18 674.803 1866.19 665.265 1867.97 C 669.93 1858.44 676.563 1849.56 682.517 1840.77 C 694.225 1823.5 706.451 1806.59 718.207 1789.36 C 728.871 1773.72 739.128 1757.7 747.179 1740.54 C 772.753 1686.01 780.925 1620.81 779.905 1561.15 C 779.043 1510.75 775.385 1431.66 737.45 1395.07 C 728.069 1388.57 718.043 1384.98 706.469 1386.08 C 693.161 1387.34 681.209 1394.63 672.843 1404.84 C 632.385 1454.24 628.083 1572.35 630.657 1634.23 C 632.206 1671.47 636.935 1708.14 640.348 1745.2 C 643.552 1780 645.26 1828.35 620.868 1856.63 C 610.452 1868.7 597.242 1871.14 582.104 1872.48 C 599.678 1802.39 603.584 1731.74 606.15 1659.92 C 606.9 1638.92 607.386 1617.85 609.286 1596.91 C 615.125 1532.57 632.464 1434.35 661.503 1376.96 C 676.557 1347.21 697.902 1319.55 717.428 1292.61 C 734.166 1269.51 750.617 1245.93 768.455 1223.67 z" fill="rgb(58,127,115)" transform="translate(0,0)"></path>
<path d="M 1569.7 526.584 C 1679.38 517.737 1800.53 567.445 1868.11 654.751 C 1883.53 674.668 1881.4 732.382 1877.03 756.342 C 1874.41 748.358 1872.22 740.838 1869.46 732.7 C 1847.35 667.634 1794.43 618.028 1733.67 588.528 C 1716.34 580.966 1687.57 569.115 1668.66 575.973 C 1650.01 582.735 1651.82 606.38 1661.18 620.201 C 1674.29 639.551 1692.63 654.13 1709.45 670.215 C 1740.84 700.238 1774.07 728.854 1801.39 762.779 C 1831.76 800.906 1854.2 842.264 1872.09 887.413 C 1875.21 896.181 1877.98 905.071 1880.38 914.062 C 1903.62 1001.43 1885.62 1053.75 1842.23 1128.38 C 1843.42 1112.51 1842.68 1093.04 1842.14 1077.17 C 1839.13 966.65 1803.85 859.428 1740.65 768.713 C 1668.34 666.432 1543.99 580.672 1419.45 559.079 C 1478.31 541.41 1506.27 530.681 1569.7 526.584 z" fill="rgb(58,127,115)" transform="translate(0,0)"></path>
<path d="M 278.217 1327.33 L 279.565 1325.85 C 304.784 1298.04 325.211 1273.94 355.345 1250.1 C 374.019 1235.33 387.283 1227.59 407.304 1215.33 C 501.475 1157.68 603.976 1138.38 712.672 1131.47 C 730.851 1130.31 749.595 1130.16 767.795 1129.02 C 746.079 1157.11 725.183 1187.48 704.778 1216.62 C 681.187 1249.77 658.115 1283.28 635.571 1317.14 C 599.798 1328.4 562.184 1335.68 527.616 1349.28 C 492.428 1363.51 454.882 1379.17 423.204 1400.23 C 369.772 1435.75 316.933 1483.96 278.688 1535.53 C 256.503 1565.45 233.746 1611.38 228.005 1647.68 C 220.525 1617.27 206.786 1566.4 207.101 1535.52 L 207.807 1534.12 C 215.17 1519.72 231.636 1506.05 244.1 1495.47 C 300.181 1448.81 362.438 1410.13 429.108 1380.52 C 471.283 1361.5 521.273 1346.19 558.522 1318.86 C 577.466 1304.96 597.701 1275.36 589.287 1251.24 C 584.767 1238.29 575.868 1229.47 563.572 1223.73 C 526.307 1206.35 475.95 1215.76 439.04 1229.49 C 390.144 1247.66 342.572 1275.67 302.372 1308.82 C 296.617 1313.56 283.526 1323.51 279.409 1329.1 L 278.217 1327.33 z" fill="rgb(58,127,115)" transform="translate(0,0)"></path>
<path d="M 609.661 1450.82 C 609.065 1465.07 605.06 1480.63 602.749 1494.8 C 598.568 1520.06 595.05 1545.44 592.199 1570.89 C 586.563 1620.79 583.705 1670.77 579.292 1720.76 C 577.232 1744.11 575.568 1767.68 571.655 1790.81 C 566.919 1818.8 559.886 1845.4 551.12 1872.37 C 490.117 1872.94 420.339 1874.88 368.436 1910.65 C 367.353 1903.25 378.384 1881.55 381.398 1873.47 C 423.931 1759.48 483.432 1652.03 547.231 1548.68 C 567.582 1515.71 587.551 1482.66 609.661 1450.82 z" fill="rgb(58,127,115)" transform="translate(0,0)"></path>
<path d="M 525.049 1679.29 C 532.637 1679.79 538.493 1681.47 543.99 1686.99 C 557.846 1700.89 559.342 1729.81 559.371 1748.26 C 559.408 1771.78 555.099 1799.79 537.297 1816.88 C 525.522 1828.19 512.323 1831.59 496.509 1831.15 C 492.079 1829.69 487.925 1828.17 484.09 1825.44 C 471.603 1816.56 464.837 1801.61 462.577 1786.79 C 458.294 1758.73 469.454 1728.01 486.024 1705.6 C 496.041 1692.05 507.851 1681.89 525.049 1679.29 z" fill="rgb(0,60,57)" transform="translate(0,0)"></path>
<path d="M 521.488 1688.16 C 522.306 1688.09 523.126 1688.03 523.946 1687.98 C 529.219 1687.68 534.06 1688.47 538.022 1692.22 C 550.198 1703.77 551.13 1732.25 551.204 1747.87 C 551.309 1770.26 547.421 1795.25 530.544 1811.52 C 521.243 1820.49 512.027 1823.3 499.504 1823.3 C 497.036 1822.56 494.506 1821.71 492.162 1820.64 C 483.533 1816.71 477.123 1807.51 473.945 1798.86 C 465.776 1776.63 471.397 1749.23 481.369 1728.5 C 489.956 1710.65 502.348 1694.85 521.488 1688.16 z" fill="rgb(252,253,252)" transform="translate(0,0)"></path>
<path d="M 609.105 488.474 C 785.828 489.241 921.581 561.727 1089.51 602.681 C 1122.05 610.615 1156.32 620.853 1189.48 624.268 L 1164.34 650.695 C 1146.8 645.397 1119.39 640.796 1100.74 637.022 C 1074.07 631.461 1047.5 625.476 1021.03 619.069 C 953.054 602.999 887.709 583.243 819.852 567.328 C 624.099 515.109 439.857 517.255 295.327 678.574 C 301.915 661.223 320.113 602.076 329.992 591.682 C 339.296 581.893 352.878 573.917 363.935 566.073 C 436.921 514.294 520.286 490.715 609.105 488.474 z" fill="rgb(252,253,252)" transform="translate(0,0)"></path>
<path d="M 1590.67 497.431 C 1683.1 491.115 1786.17 529.695 1850.99 597.84 C 1857.82 605.024 1867.85 635.534 1871.29 646.338 C 1789.27 537.324 1626.29 496.237 1498.54 527.951 C 1458.67 537.849 1420.24 550.934 1380.97 561.664 C 1424.28 565.116 1457.15 574.775 1497.23 590.479 C 1637.83 645.582 1732.19 741.286 1792.01 879.516 C 1815.58 936.975 1831.13 1003.3 1833.22 1065.57 C 1834.01 1089.23 1836.63 1121.27 1829.54 1143.55 C 1826.74 1152.35 1806.38 1177.13 1800 1185.26 C 1828.07 1040.2 1791.23 881.765 1696.83 767.379 C 1626.37 681.191 1528.99 621.193 1420.32 597.026 C 1386.14 589.454 1359.84 587.159 1325.83 583.866 C 1331.24 577.898 1337.89 570.883 1344.47 566.334 C 1348.79 566.144 1357.11 565.374 1360.86 563.404 C 1434.54 524.699 1507.15 503.246 1590.67 497.431 z" fill="rgb(252,253,252)" transform="translate(0,0)"></path>
<path d="M 806.322 773.425 C 881.719 770.003 967.542 777.282 1042.87 785.309 C 1037.01 792.652 1026.74 803.718 1019.7 809.845 C 807.282 782.395 594.1 812.631 401.838 907.679 C 345.125 935.716 292.749 969.727 244.568 1010.69 C 199.279 1046.55 157.364 1093.19 128.63 1143.4 C 128.876 1124.45 131.65 1101.78 133.269 1082.44 C 140.775 1075.23 151.428 1060.83 159.236 1052.22 C 317.647 877.506 575.201 785.583 806.322 773.425 z" fill="rgb(252,253,252)" transform="translate(0,0)"></path>
<path d="M 1238.51 670.591 C 1245.98 672.478 1266.31 685.877 1273.63 690.488 C 1355.33 742.697 1429.63 805.665 1494.53 877.696 C 1588.44 980.328 1660.96 1111.08 1654.64 1254.08 C 1652.08 1319.12 1633.74 1382.42 1610.59 1442.86 C 1602.6 1463.72 1599.62 1474.7 1582.69 1490.1 L 1575 1496.97 C 1635.31 1389.72 1637.79 1269.59 1606.78 1153.01 C 1571.93 1021.98 1496.11 916.38 1399 823.764 C 1343.25 770.603 1289.94 727.741 1223.14 688.48 L 1238.51 670.591 z" fill="rgb(252,253,252)" transform="translate(0,0)"></path>
<path d="M 1133.46 787.715 C 1140.57 795.216 1146.27 805.241 1152.6 813.522 C 1179.55 848.734 1205.99 884.326 1228.71 922.484 C 1294.31 1032.65 1358.98 1155.8 1398.37 1277.98 C 1406.54 1303.33 1414.3 1328.39 1419.08 1354.63 C 1428.75 1407.7 1429.54 1465.51 1416.13 1517.92 C 1407.42 1551.95 1380.46 1620.92 1358.87 1646.91 C 1352.79 1654.23 1345.44 1658.87 1337.34 1663.67 C 1335.8 1664.5 1334.14 1665.13 1332.52 1665.82 C 1331.88 1664.11 1349.2 1639.65 1351.44 1636.06 C 1380.25 1589.68 1398.08 1537.32 1403.56 1482.99 C 1413.06 1385.39 1382.21 1291.04 1346.61 1201.69 C 1290.27 1060.27 1216.04 920.725 1119 802.912 L 1133.46 787.715 z" fill="rgb(252,253,252)" transform="translate(0,0)"></path>
<path d="M 1001.86 937.018 C 1001.89 937.08 1001.94 937.136 1001.96 937.203 C 1006.3 949.343 1010.27 970.981 1013.75 984.48 C 1022.24 1017.25 1031.45 1049.83 1041.37 1082.2 C 1058.12 1133.79 1074.38 1185.52 1090.16 1237.41 C 1101.08 1273.75 1112.18 1310.27 1119.87 1347.45 C 1139.84 1444.06 1138.17 1547.24 1102.65 1640.2 C 1085.36 1684.59 1061.12 1725.94 1030.83 1762.7 C 1024.35 1770.53 1017.53 1779.1 1009.36 1785.23 C 1003.28 1789.79 994.177 1792.76 987.175 1795.85 C 987.539 1791.98 1003.64 1773.6 1007.09 1769.16 C 1027.68 1742.74 1047.07 1714.5 1062.71 1684.84 C 1118.67 1578.7 1123.76 1457.03 1098.98 1341.25 C 1085.38 1277.74 1064.28 1216.37 1043.78 1154.87 C 1022.35 1090.85 1001.62 1026.58 981.616 962.096 C 988.162 953.576 994.912 945.214 1001.86 937.018 z" fill="rgb(252,253,252)" transform="translate(0,0)"></path>
<path d="M 802.598 1177.82 C 804.937 1181.69 808.197 1252.97 809.073 1263.91 C 813.257 1316.16 823.573 1366.92 833.535 1418.26 C 842.747 1465.74 851.494 1513.69 857.151 1561.72 C 860.326 1588.67 863.272 1615.86 862.781 1643.04 C 861.693 1703.3 840.795 1810.83 796.442 1852.73 C 787.096 1861.53 774.596 1866.19 761.77 1865.66 C 769.405 1859.44 775.979 1852.55 782.007 1844.76 C 842.273 1766.87 845.955 1644.18 834.952 1550.6 C 829.812 1506.89 820.416 1464.07 812.492 1420.84 C 799.744 1351.28 785.367 1281.26 776.55 1211.07 C 785.984 1200.86 794.177 1188.9 802.598 1177.82 z" fill="rgb(252,253,252)" transform="translate(0,0)"></path>
<path d="M 422.528 1501.37 C 425.119 1501.38 427.875 1501.76 430.395 1502.36 C 434.964 1503.44 438.646 1505.44 441.014 1509.57 C 445.891 1518.09 444.695 1528.18 442.125 1537.23 C 430.898 1576.77 390.545 1606.84 356.2 1625.61 C 340.468 1634.22 323.815 1641.19 308.221 1650.03 C 284.541 1663.45 267.798 1680.46 260.347 1707.25 C 259.584 1709.87 258.62 1712.41 257.664 1714.98 L 256.322 1714.69 C 251.301 1704.4 246.082 1694.26 243.31 1683.09 C 255.112 1659.65 268.517 1637.12 284.907 1616.56 C 312.342 1582.14 355.711 1529.44 395.367 1509.37 C 404.259 1504.87 412.659 1502.49 422.528 1501.37 z" fill="rgb(252,253,252)" transform="translate(0,0)"></path>
<path d="M 776.186 196.362 C 885.095 183.479 979.907 217.672 1065.08 284.975 C 1092.33 306.237 1117.19 330.396 1139.22 357.028 C 1177.4 403.636 1209.77 459.347 1256.82 498.956 C 1266.76 507.318 1279.74 515.028 1291.02 521.686 C 1283.49 529.292 1276.41 536.44 1268.53 543.7 C 1255.76 534.407 1244.56 526.445 1232.81 515.776 C 1182.1 469.745 1151.85 410.126 1109.84 356.822 C 1089.79 331.384 1069.18 314.015 1045.1 293.252 C 968.726 227.426 881.621 193.844 779.773 198.419 L 776.186 196.362 z" fill="rgb(252,253,252)" transform="translate(0,0)"></path>
<path d="M 1086.51 108.254 C 1101.61 108.756 1138.55 116.328 1153.06 122.009 C 1162.71 125.786 1179.37 140.051 1186.85 147.168 C 1222.25 180.846 1246.56 219.925 1262.81 265.88 C 1269.99 286.157 1274.85 302.263 1278.4 324.008 C 1283.83 357.256 1283.24 389.284 1285.16 422.792 C 1286.18 440.473 1289.32 458.985 1291.89 476.832 C 1293.48 487.793 1296.4 502.055 1299.51 513.038 C 1299.06 514.003 1298.61 514.968 1298.17 515.933 C 1296.78 516.954 1295.74 517.576 1294.29 518.482 C 1286.75 517.392 1283.04 506.888 1279.84 500.791 C 1250.67 445.292 1260.88 382.666 1250.91 323.018 C 1246.19 294.777 1237.35 265.429 1224.67 239.661 C 1193.73 181.035 1150.8 130.049 1086.51 108.254 z" fill="rgb(252,253,252)" transform="translate(0,0)"></path>
<path d="M 1180.22 129.811 C 1180.5 129.871 1180.78 129.931 1181.05 129.99 C 1222.5 144.184 1267.11 180.816 1289.51 217.204 C 1333.89 289.3 1317.52 353.247 1300.09 427.795 C 1298.71 433.997 1297.72 439.505 1295.15 445.333 C 1292.19 316.676 1281.89 221.163 1180.22 129.811 z" fill="rgb(58,127,115)" transform="translate(0,0)"></path>
<path d="M 1619.83 461.424 C 1664.13 457.348 1729.06 475.816 1766.45 500.089 C 1790.92 515.974 1829.34 551.64 1840.79 578.07 C 1809.87 548.066 1771.5 526.107 1731.33 511.046 C 1666.19 487.348 1605.41 483.481 1537.34 495.501 C 1512.22 499.938 1488.75 505.958 1463.98 510.974 C 1472.74 505.515 1486.5 499.653 1496.08 495.284 C 1538.1 476.113 1573.36 464.564 1619.83 461.424 z" fill="rgb(58,127,115)" transform="translate(0,0)"></path>
<path d="M 781.645 1106.54 L 782.974 1106.93 C 781.451 1111.53 776.027 1116.87 772.916 1120.74 C 750.878 1121.94 728.783 1122.29 706.759 1123.69 C 671.056 1126.06 635.5 1130.27 600.232 1136.31 C 479.311 1157.28 368.213 1212.99 286.458 1305.41 C 268.688 1325.5 253.403 1347.39 237.975 1369.28 L 237.075 1369.46 C 237.84 1364.47 242.245 1358.61 244.843 1354.16 C 261.614 1325.44 280.556 1299.08 303.094 1274.6 C 432.854 1133.65 600.253 1113.97 781.645 1106.54 z" fill="rgb(252,253,252)" transform="translate(0,0)"></path>
<path d="M 642.721 1400.83 C 643.608 1408.39 629.669 1440.25 626.942 1450.82 C 618.681 1482.83 612.915 1515.89 607.755 1548.53 C 600.586 1593.86 599.291 1639.15 597.089 1684.9 C 594.092 1747.15 589.565 1811.52 573.421 1871.95 C 569.428 1872.44 565.352 1872.54 561.335 1872.78 C 561.252 1872.44 561.126 1872.11 561.086 1871.76 C 560.519 1866.85 569.479 1840.2 571.331 1832.73 C 576.505 1811.25 580.393 1789.47 582.974 1767.53 C 589.487 1715.69 591.858 1663.37 596.609 1611.36 C 600.786 1564.48 607.114 1517.81 615.571 1471.5 C 617.538 1460.21 617.154 1448.16 619.722 1437.09 C 622.674 1424.35 634.956 1411.18 642.721 1400.83 z" fill="rgb(252,253,252)" transform="translate(0,0)"></path>
<path d="M 627.307 1328.34 C 625.456 1331.41 623.809 1334.32 621.617 1337.16 C 615.323 1338.93 609.073 1340.8 602.856 1342.82 C 499.456 1376.38 395.426 1425.98 318.32 1504.2 L 316.635 1502.77 C 388.312 1424.36 462.101 1376.91 563.822 1345.04 C 584.271 1338.63 606.446 1333.47 627.307 1328.34 z" fill="rgb(252,253,252)" transform="translate(0,0)"></path>
<path d="M 301.584 1519.53 L 303.31 1520.37 C 298.9 1525.67 286.209 1542.67 281.612 1545.19 L 281.177 1544.86 C 288.347 1536.61 292.17 1529.25 301.584 1519.53 z" fill="rgb(58,127,115)" transform="translate(0,0)"></path>
<path d="M 301.584 1519.53 C 306.538 1513.89 311.556 1508.3 316.635 1502.77 L 318.32 1504.2 C 314.195 1508.61 306.893 1515.93 303.31 1520.37 L 301.584 1519.53 z" fill="rgb(159,194,191)" transform="translate(0,0)"></path>
<path d="M 278.217 1327.33 L 279.409 1329.1 C 276.692 1332.31 271.369 1339.41 267.697 1340.2 C 269.28 1335.79 274.805 1330.8 278.217 1327.33 z" fill="rgb(19,71,70)" transform="translate(0,0)"></path>
<path d="M 760.883 198.775 C 766.037 197.585 770.953 197.047 776.186 196.362 L 779.773 198.419 C 774.175 198.951 767.841 199.356 762.391 200.468 L 760.883 198.775 z" fill="rgb(159,194,191)" transform="translate(0,0)"></path>
<path d="M 762.391 200.468 C 758.948 201.08 755.868 202.056 752.628 201.065 C 755.467 199.29 757.58 199.269 760.883 198.775 L 762.391 200.468 z" fill="rgb(58,127,115)" transform="translate(0,0)"></path>
<metadata><recraft-signature>{"signed_by": "recraft", "signature_b64": "n7uWwnem7grHCl0Jmkv6S9QbRphjCu8dPFWd0FY8GVMQNGsTJJNN9/xgj56el9X5hKmQXSriNH8oQZsBgzR6CQ==", "signing_algo": "Ed25519"}</recraft-signature></metadata></svg>